<?xml version="1.0" encoding="UTF-8" standalone="no"?>
<!-- Uploaded to: SVG Repo, www.svgrepo.com, Transformed by: SVG Repo Mixer Tools -->

<svg
   fill="#4E4E4E"
   version="1.1"
   id="Capa_1"
   width="256px"
   height="256px"
   viewBox="0 0 574.75 574.75"
   xml:space="preserve"
   stroke="#4E4E4E"
   stroke-width="0.00574752"
   sodipodi:docname="chrono.svg"
   inkscape:version="1.4.3 (0d15f75042, 2025-12-25)"
   xmlns:inkscape="http://www.inkscape.org/namespaces/inkscape"
   xmlns:sodipodi="http://sodipodi.sourceforge.net/DTD/sodipodi-0.dtd"
   xmlns="http://www.w3.org/2000/svg"
   xmlns:svg="http://www.w3.org/2000/svg"><defs
   id="defs4" /><sodipodi:namedview
   id="namedview4"
   pagecolor="#ffffff"
   bordercolor="#000000"
   borderopacity="0.25"
   inkscape:showpageshadow="2"
   inkscape:pageopacity="0.0"
   inkscape:pagecheckerboard="0"
   inkscape:deskcolor="#d1d1d1"
   inkscape:zoom="1.016466"
   inkscape:cx="177.08413"
   inkscape:cy="165.77042"
   inkscape:window-width="1680"
   inkscape:window-height="1050"
   inkscape:window-x="0"
   inkscape:window-y="0"
   inkscape:window-maximized="1"
   inkscape:current-layer="Capa_1" />

<g
   id="SVGRepo_bgCarrier"
   stroke-width="0" />

<g
   id="SVGRepo_tracerCarrier"
   stroke-linecap="round"
   stroke-linejoin="round"
   stroke="#CCCCCC"
   stroke-width="3.4485119999999996" />

<g
   id="SVGRepo_iconCarrier"
   style="fill:#2a2a2a;fill-opacity:1;stroke:none;stroke-opacity:1"> <g
   id="g4"
   style="fill:#2a2a2a;fill-opacity:1;stroke:none;stroke-opacity:1"> <g
   id="g3"
   style="fill:#2a2a2a;fill-opacity:1;stroke:none;stroke-opacity:1"> <g
   id="g2"
   style="fill:#2a2a2a;fill-opacity:1;stroke:none;stroke-opacity:1"> <path
   d="M513.276,162.567c18.738-18.729,18.738-49.103,0-67.83c-18.738-18.739-49.094-18.739-67.83,0l-39.123,38.975 c-19.321-11.571-40.343-20.463-62.695-26.178V78.566h24.884c13.415,0,24.282-10.877,24.282-24.292V24.292 C392.793,10.877,381.926,0,368.511,0H201.219c-13.415,0-24.282,10.877-24.282,24.292v29.98c0,13.415,10.867,24.292,24.282,24.292 h27.283v28.35C124.754,132.312,47.422,225.83,47.422,337.31c0,130.929,106.524,237.442,237.443,237.442 c130.917,0,237.441-106.515,237.441-237.442c0-51.733-16.844-99.497-45.045-138.543L513.276,162.567z M284.865,517.193 c-99.176,0-179.881-80.694-179.881-179.883c0-99.188,80.702-179.878,179.881-179.878c99.175,0,179.879,80.692,179.879,179.878 C464.745,436.499,384.041,517.193,284.865,517.193z"
   id="path1"
   style="fill:#2a2a2a;fill-opacity:1;stroke:none;stroke-opacity:1" /> <path
   d="M284.865,193.069c-15.89,0-28.78,12.883-28.78,28.78v115.459c0,15.9,12.891,28.78,28.78,28.78 c15.888,0,28.78-12.883,28.78-28.78V221.85C313.648,205.952,300.753,193.069,284.865,193.069z"
   id="path2"
   style="fill:#2a2a2a;fill-opacity:1;stroke:none;stroke-opacity:1" /> </g> </g> </g> </g>

</svg>
