<?xml version="1.0" encoding="UTF-8" standalone="no"?>
<!-- Uploaded to: SVG Repo, www.svgrepo.com, Generator: SVG Repo Mixer Tools -->

<svg
   width="1079.9495"
   height="1079.9495"
   viewBox="0 0 32.398484 32.398484"
   fill="none"
   version="1.1"
   id="svg1"
   sodipodi:docname="cursor-alt-svgrepo-com.svg"
   inkscape:version="1.4.3 (0d15f75042, 2025-12-25)"
   xmlns:inkscape="http://www.inkscape.org/namespaces/inkscape"
   xmlns:sodipodi="http://sodipodi.sourceforge.net/DTD/sodipodi-0.dtd"
   xmlns="http://www.w3.org/2000/svg"
   xmlns:svg="http://www.w3.org/2000/svg">
  <defs
     id="defs1" />
  <sodipodi:namedview
     id="namedview1"
     pagecolor="#ffffff"
     bordercolor="#000000"
     borderopacity="0.25"
     inkscape:showpageshadow="2"
     inkscape:pageopacity="0.0"
     inkscape:pagecheckerboard="0"
     inkscape:deskcolor="#d1d1d1"
     inkscape:zoom="0.32"
     inkscape:cx="579.6875"
     inkscape:cy="807.8125"
     inkscape:window-width="1680"
     inkscape:window-height="1050"
     inkscape:window-x="0"
     inkscape:window-y="0"
     inkscape:window-maximized="1"
     inkscape:current-layer="svg1" />
  <rect
     style="fill:#000000;fill-opacity:1;stroke-width:24.0184;stroke-dasharray:none"
     id="rect1"
     x="0"
     y="0"
     width="32.398483"
     height="32.398483"
     ry="5.15625" />
  <path
     d="m 22.642237,17.795225 c 2.353191,-1.265367 3.529731,-1.89805 3.827451,-2.659694 0.258365,-0.660888 0.185658,-1.405411 -0.195553,-2.003919 -0.439354,-0.689671 -1.71606,-1.082944 -4.269472,-1.869501 L 12.35368,8.2892331 C 10.199233,7.6255772 9.1220142,7.2937603 8.4096535,7.5627758 7.789555,7.7969497 7.3062765,8.29557 7.09158,8.9226835 6.8449436,9.6430931 7.2102568,10.709427 7.9408942,12.842096 l 3.2363688,9.446836 c 0.898708,2.623229 1.348067,3.934955 2.064764,4.351852 0.621555,0.361533 1.379552,0.400221 2.034692,0.103724 0.755418,-0.341856 1.33585,-1.600997 2.496825,-4.119279 l 0.857697,-1.860473 c 0.184769,-0.400888 0.277153,-0.601333 0.403668,-0.776318 0.112173,-0.15542 0.244024,-0.295497 0.392106,-0.41712 0.166981,-0.136965 0.361311,-0.241467 0.750081,-0.450471 z"
     stroke="#000000"
     stroke-width="2"
     stroke-linecap="round"
     stroke-linejoin="round"
     id="path1"
     style="fill:#363636;fill-opacity:1;stroke:#ffffff;stroke-width:1.56510001;stroke-dasharray:none;stroke-dashoffset:0;stroke-opacity:1" />
</svg>
