<?xml version="1.0" encoding="UTF-8" standalone="no"?>
<!-- Uploaded to: SVG Repo, www.svgrepo.com, Generator: SVG Repo Mixer Tools -->

<svg
   width="800px"
   height="800px"
   viewBox="0 0 24 24"
   fill="none"
   version="1.1"
   id="svg1"
   sodipodi:docname="keyboard.svg"
   inkscape:version="1.4.3 (0d15f75042, 2025-12-25)"
   xmlns:inkscape="http://www.inkscape.org/namespaces/inkscape"
   xmlns:sodipodi="http://sodipodi.sourceforge.net/DTD/sodipodi-0.dtd"
   xmlns="http://www.w3.org/2000/svg"
   xmlns:svg="http://www.w3.org/2000/svg">
  <defs
     id="defs1" />
  <sodipodi:namedview
     id="namedview1"
     pagecolor="#ffffff"
     bordercolor="#000000"
     borderopacity="0.25"
     inkscape:showpageshadow="2"
     inkscape:pageopacity="0.0"
     inkscape:pagecheckerboard="0"
     inkscape:deskcolor="#d1d1d1"
     inkscape:zoom="0.31125"
     inkscape:cx="398.39357"
     inkscape:cy="400"
     inkscape:window-width="1680"
     inkscape:window-height="1050"
     inkscape:window-x="0"
     inkscape:window-y="0"
     inkscape:window-maximized="1"
     inkscape:current-layer="svg1" />
  <path
     d="M7 14H17M6 10H6.01M10 10H10.01M14 10H14.01M18 10H18.01M5.2 18H18.8C19.9201 18 20.4802 18 20.908 17.782C21.2843 17.5903 21.5903 17.2843 21.782 16.908C22 16.4802 22 15.9201 22 14.8V9.2C22 8.0799 22 7.51984 21.782 7.09202C21.5903 6.71569 21.2843 6.40973 20.908 6.21799C20.4802 6 19.9201 6 18.8 6H5.2C4.07989 6 3.51984 6 3.09202 6.21799C2.71569 6.40973 2.40973 6.71569 2.21799 7.09202C2 7.51984 2 8.07989 2 9.2V14.8C2 15.9201 2 16.4802 2.21799 16.908C2.40973 17.2843 2.71569 17.5903 3.09202 17.782C3.51984 18 4.0799 18 5.2 18Z"
     stroke="#000000"
     stroke-width="2"
     stroke-linecap="round"
     stroke-linejoin="round"
     id="path1"
     style="stroke:#b4b4b4;stroke-opacity:1" />
</svg>
