<?xml version="1.0" encoding="UTF-8" standalone="no"?>
<!-- Uploaded to: SVG Repo, www.svgrepo.com, Transformed by: SVG Repo Mixer Tools -->

<svg
   width="256px"
   height="256px"
   viewBox="0 0 24.00 24.00"
   fill="none"
   stroke="#000000"
   version="1.1"
   id="svg3"
   sodipodi:docname="mouse-svgrepo-com.svg"
   inkscape:version="1.4.3 (0d15f75042, 2025-12-25)"
   xmlns:inkscape="http://www.inkscape.org/namespaces/inkscape"
   xmlns:sodipodi="http://sodipodi.sourceforge.net/DTD/sodipodi-0.dtd"
   xmlns="http://www.w3.org/2000/svg"
   xmlns:svg="http://www.w3.org/2000/svg">
  <defs
     id="defs3" />
  <sodipodi:namedview
     id="namedview3"
     pagecolor="#ffffff"
     bordercolor="#000000"
     borderopacity="0.25"
     inkscape:showpageshadow="2"
     inkscape:pageopacity="0.0"
     inkscape:pagecheckerboard="0"
     inkscape:deskcolor="#d1d1d1"
     showguides="true"
     inkscape:zoom="1.4142136"
     inkscape:cx="123.74369"
     inkscape:cy="189.15106"
     inkscape:window-width="1652"
     inkscape:window-height="972"
     inkscape:window-x="0"
     inkscape:window-y="0"
     inkscape:window-maximized="1"
     inkscape:current-layer="SVGRepo_iconCarrier" />
  <g
     id="SVGRepo_bgCarrier"
     stroke-width="0" />
  <g
     id="SVGRepo_tracerCarrier"
     stroke-linecap="round"
     stroke-linejoin="round"
     stroke="#CCCCCC"
     stroke-width="0.048" />
  <g
     id="SVGRepo_iconCarrier"
     style="stroke:#b4b4b4;stroke-opacity:1"
     transform="matrix(1.0798931,0,0,1.0798931,-1.0239352,-0.91260212)">
    <path
       d="m 5,9 c 0,-3.86599 3.13401,-7 7,-7 3.866,0 7,3.13401 7,7 v 6 c 0,3.866 -3.134,7 -7,7 -3.86599,0 -7,-3.134 -7,-7 z m 14.178754,1.83837 -5.459004,-0.02409 m -3.590692,3.52e-4 -5.4590044,-0.02409"
       stroke="#B4B4B4"
       stroke-width="1.224"
       id="path1"
       style="stroke:#b4b4b4;stroke-opacity:1"
       sodipodi:nodetypes="ssssssscccc" />
    <path
       d="M 10.5,8.5 C 10.5,7.67157 11.1716,7 12,7 c 0.8284,0 1.5,0.67157 1.5,1.5 v 2 c 0,0.8284 -0.6716,1.5 -1.5,1.5 -0.8284,0 -1.5,-0.6716 -1.5,-1.5 z"
       stroke="#B4B4B4"
       stroke-width="1.224"
       id="path2"
       style="stroke:#b4b4b4;stroke-opacity:1" />
    <path
       d="M 12,2 V 7"
       stroke="#B4B4B4"
       stroke-width="1.224"
       stroke-linecap="round"
       id="path3"
       style="stroke:#b4b4b4;stroke-opacity:1" />
  </g>
</svg>
