<?xml version="1.0" encoding="UTF-8" standalone="no"?>
<!-- Uploaded to: SVG Repo, www.svgrepo.com, Generator: SVG Repo Mixer Tools -->

<svg
   fill="#000000"
   version="1.1"
   id="Capa_1"
   width="800px"
   height="800px"
   viewBox="0 0 594.178 594.177"
   xml:space="preserve"
   sodipodi:docname="mouse_hover.svg"
   inkscape:version="1.4.3 (0d15f75042, 2025-12-25)"
   xmlns:inkscape="http://www.inkscape.org/namespaces/inkscape"
   xmlns:sodipodi="http://sodipodi.sourceforge.net/DTD/sodipodi-0.dtd"
   xmlns="http://www.w3.org/2000/svg"
   xmlns:svg="http://www.w3.org/2000/svg"><defs
   id="defs3" /><sodipodi:namedview
   id="namedview3"
   pagecolor="#ffffff"
   bordercolor="#000000"
   borderopacity="0.25"
   inkscape:showpageshadow="2"
   inkscape:pageopacity="0.0"
   inkscape:pagecheckerboard="0"
   inkscape:deskcolor="#d1d1d1"
   inkscape:zoom="0.31125"
   inkscape:cx="398.39357"
   inkscape:cy="400"
   inkscape:window-width="1680"
   inkscape:window-height="1050"
   inkscape:window-x="0"
   inkscape:window-y="0"
   inkscape:window-maximized="1"
   inkscape:current-layer="Capa_1" />
<g
   id="g3"
   style="fill:#2a2a2a;fill-opacity:1;stroke:none;stroke-opacity:1">
	<g
   id="g2"
   style="fill:#2a2a2a;fill-opacity:1;stroke:none;stroke-opacity:1">
		<path
   d="M552.596,406.673c0-21.523-4.087-42.517-12.148-62.396c-8.355-20.604-20.613-39.072-36.435-54.893L345.874,131.246    c-15.82-15.821-34.289-28.079-54.894-36.434c-19.879-8.062-40.872-12.149-62.396-12.149s-42.517,4.087-62.396,12.149    c-16.699,6.772-31.994,16.108-45.615,27.826c-1.795-4.655-3.477-10.007-4.649-15.866c-5.215-26.079,2.369-49.531,22.542-69.705    c8.365-8.365,8.365-21.927,0-30.293c-8.365-8.365-21.927-8.365-30.293,0C69.647,45.301,68.28,86.986,73.917,115.172    c3.321,16.603,9.349,30.249,14.201,39.304c-14.83,15.349-26.397,33.092-34.387,52.794c-8.061,19.879-12.149,40.872-12.149,62.396    c0,21.523,4.088,42.517,12.149,62.396c8.355,20.604,20.613,39.073,36.434,54.894l158.139,158.139    c15.82,15.82,34.289,28.078,54.893,36.434c19.879,8.062,40.872,12.149,62.396,12.149s42.518-4.087,62.396-12.149    c20.604-8.354,39.072-20.613,54.893-36.434l21.132-21.132c15.82-15.82,28.078-34.289,36.434-54.893    C548.509,449.19,552.596,428.197,552.596,406.673z M228.585,125.503c31.486,0,62.973,12.012,86.997,36.035l14.017,14.017    l-81.986,81.986L146.747,156.674C170.026,135.897,199.304,125.503,228.585,125.503z M116.408,186.92L217.32,287.833    l-82.846,82.847l-14.017-14.017C73.802,310.007,72.455,235.206,116.408,186.92z M473.721,493.67l-21.132,21.132    c-24.023,24.023-55.51,36.035-86.996,36.035s-62.973-12.012-86.996-36.035l-113.831-113.83l97.993-97.993l97.132-97.132    l113.83,113.831C521.768,367.724,521.768,445.624,473.721,493.67z"
   id="path1"
   style="fill:#2a2a2a;fill-opacity:1;stroke:none;stroke-opacity:1" />
		<path
   d="M365.592,594.177c-21.588,0-42.644-4.1-62.583-12.187c-20.667-8.381-39.191-20.676-55.059-36.543L89.811,387.309    c-15.867-15.867-28.162-34.392-36.543-55.06c-8.086-19.939-12.186-40.996-12.186-62.583c0-21.587,4.1-42.644,12.186-62.584    c7.957-19.622,19.476-37.348,34.238-52.692c-4.612-8.663-10.732-22.389-14.079-39.12c-5.661-28.305-4.289-70.167,34.394-108.85    c4.14-4.14,9.645-6.42,15.5-6.42s11.36,2.28,15.5,6.42c8.546,8.547,8.546,22.454,0,31c-20.048,20.048-27.586,43.348-22.405,69.253    c1.002,5.011,2.473,10.095,4.373,15.123c13.517-11.528,28.725-20.761,45.213-27.448c19.939-8.086,40.995-12.186,62.584-12.186    s42.645,4.1,62.583,12.186c20.667,8.381,39.192,20.676,55.059,36.544l158.139,158.139c15.868,15.868,28.163,34.392,36.544,55.059    c8.086,19.938,12.186,40.993,12.186,62.583s-4.1,42.646-12.187,62.584c-8.381,20.667-20.676,39.191-36.543,55.059l-21.132,21.132    c-15.869,15.869-34.394,28.164-55.059,36.543C408.239,590.078,387.183,594.177,365.592,594.177z M123.321,1    c-5.588,0-10.841,2.176-14.793,6.127c-38.37,38.371-39.733,79.88-34.121,107.946c3.364,16.82,9.552,30.583,14.151,39.166    l0.172,0.322l-0.253,0.262c-14.794,15.312-26.329,33.021-34.283,52.635c-8.037,19.82-12.112,40.75-12.112,62.208    c0,21.458,4.075,42.388,12.112,62.208c8.331,20.543,20.552,38.956,36.324,54.728l158.139,158.139    c15.772,15.772,34.185,27.993,54.727,36.323c19.82,8.038,40.75,12.113,62.208,12.113c21.462,0,42.392-4.075,62.209-12.112    c20.54-8.329,38.953-20.551,54.727-36.324l21.132-21.132c15.772-15.772,27.993-34.185,36.323-54.727    c8.038-19.818,12.113-40.748,12.113-62.209c0-21.46-4.075-42.39-12.112-62.208c-8.33-20.542-20.552-38.955-36.324-54.727    L345.521,131.599c-15.772-15.772-34.186-27.994-54.728-36.324c-19.819-8.037-40.749-12.112-62.208-12.112    c-21.459,0-42.389,4.075-62.208,12.112c-16.607,6.735-31.908,16.069-45.477,27.742l-0.538,0.462l-0.255-0.662    c-2.043-5.296-3.615-10.662-4.673-15.948c-5.25-26.253,2.38-49.857,22.679-70.156c8.156-8.156,8.156-21.429,0-29.586    C134.163,3.176,128.909,1,123.321,1z M365.593,551.337c-32.996,0-64.018-12.85-87.35-36.182L164.059,400.972L359.891,205.14    l114.184,114.184c48.165,48.165,48.165,126.535,0,174.7l-21.132,21.132C429.61,538.488,398.589,551.337,365.593,551.337z     M165.473,400.972L278.95,514.449c23.144,23.144,53.913,35.889,86.643,35.889s63.499-12.745,86.643-35.889l21.132-21.132    c47.775-47.775,47.775-125.511,0-173.286L359.891,206.554L165.473,400.972z M134.474,371.386l-14.37-14.37    c-46.734-46.733-48.52-121.597-4.065-170.432l0.353-0.388l101.636,101.636L134.474,371.386z M116.426,187.646    c-43.729,48.448-41.846,122.432,4.385,168.664l13.663,13.663l82.139-82.14L116.426,187.646z M247.613,258.248L146.019,156.654    l0.395-0.353c22.614-20.183,51.796-31.298,82.172-31.298c32.997,0,64.018,12.85,87.35,36.182l14.37,14.37L247.613,258.248z     M147.475,156.696l100.138,100.138l81.279-81.279l-13.663-13.663c-23.143-23.143-53.914-35.889-86.643-35.889    C198.632,126.003,169.85,136.898,147.475,156.696z"
   id="path2"
   style="fill:#2a2a2a;fill-opacity:1;stroke:none;stroke-opacity:1" />
	</g>
</g>
</svg>
