<?xml version="1.0" encoding="UTF-8" standalone="no"?>
<!-- Uploaded to: SVG Repo, www.svgrepo.com, Transformed by: SVG Repo Mixer Tools -->

<svg
   width="800px"
   height="800px"
   viewBox="0 0 24 24"
   fill="none"
   version="1.1"
   id="svg1"
   sodipodi:docname="stop.svg"
   inkscape:version="1.4.3 (0d15f75042, 2025-12-25)"
   xmlns:inkscape="http://www.inkscape.org/namespaces/inkscape"
   xmlns:sodipodi="http://sodipodi.sourceforge.net/DTD/sodipodi-0.dtd"
   xmlns="http://www.w3.org/2000/svg"
   xmlns:svg="http://www.w3.org/2000/svg">
  <defs
     id="defs1" />
  <sodipodi:namedview
     id="namedview1"
     pagecolor="#ffffff"
     bordercolor="#000000"
     borderopacity="0.25"
     inkscape:showpageshadow="2"
     inkscape:pageopacity="0.0"
     inkscape:pagecheckerboard="0"
     inkscape:deskcolor="#d1d1d1"
     inkscape:zoom="0.44017397"
     inkscape:cx="522.52067"
     inkscape:cy="707.67474"
     inkscape:window-width="1680"
     inkscape:window-height="1050"
     inkscape:window-x="0"
     inkscape:window-y="0"
     inkscape:window-maximized="1"
     inkscape:current-layer="svg1" />
  <g
     id="SVGRepo_bgCarrier"
     stroke-width="0" />
  <g
     id="SVGRepo_tracerCarrier"
     stroke-linecap="round"
     stroke-linejoin="round" />
  <g
     id="SVGRepo_iconCarrier"
     style="fill:#b4b4b4;fill-opacity:1"
     transform="matrix(1.1567562,0,0,1.1567562,-1.8810744,-1.8810744)">
    <path
       fill-rule="evenodd"
       clip-rule="evenodd"
       d="M 12,22 C 17.5228,22 22,17.5228 22,12 22,6.47715 17.5228,2 12,2 6.47715,2 2,6.47715 2,12 2,17.5228 6.47715,22 12,22 Z M 8.58579,8.58579 C 8,9.17157 8,10.1144 8,12 8,13.8856 8,14.8284 8.58579,15.4142 9.17157,16 10.1144,16 12,16 c 1.8856,0 2.8284,0 3.4142,-0.5858 C 16,14.8284 16,13.8856 16,12 16,10.1144 16,9.17157 15.4142,8.58579 14.8284,8 13.8856,8 12,8 10.1144,8 9.17157,8 8.58579,8.58579 Z"
       fill="#1C274C"
       id="path1"
       style="fill:#b4b4b4;fill-opacity:1" />
  </g>
</svg>
